<svg width="42" height="44" viewBox="0 0 42 44" fill="none" xmlns="http://www.w3.org/2000/svg">
<path d="M2.99764 41C2.92431 41 2.86197 40.9743 2.81064 40.923C2.75931 40.8717 2.73364 40.8093 2.73364 40.736V34.653H0.698641C0.625307 34.653 0.562974 34.6273 0.511641 34.576C0.460307 34.5247 0.434641 34.4623 0.434641 34.389V33.575C0.434641 33.4943 0.460307 33.4283 0.511641 33.377C0.562974 33.3257 0.625307 33.3 0.698641 33.3H6.30864C6.38931 33.3 6.45531 33.3257 6.50664 33.377C6.55797 33.4283 6.58364 33.4943 6.58364 33.575V34.389C6.58364 34.4623 6.55797 34.5247 6.50664 34.576C6.45531 34.6273 6.38931 34.653 6.30864 34.653H4.28464V40.736C4.28464 40.8093 4.25897 40.8717 4.20764 40.923C4.15631 40.9743 4.09031 41 4.00964 41H2.99764ZM7.9638 41C7.89046 41 7.82813 40.9743 7.7768 40.923C7.72546 40.8717 7.6998 40.8093 7.6998 40.736V33.575C7.6998 33.4943 7.72546 33.4283 7.7768 33.377C7.82813 33.3257 7.89046 33.3 7.9638 33.3H12.8038C12.8845 33.3 12.9505 33.3257 13.0018 33.377C13.0531 33.4283 13.0788 33.4943 13.0788 33.575V34.301C13.0788 34.3743 13.0531 34.4367 13.0018 34.488C12.9505 34.5393 12.8845 34.565 12.8038 34.565H9.1848V36.512H12.5618C12.6425 36.512 12.7085 36.5377 12.7598 36.589C12.8111 36.633 12.8368 36.6953 12.8368 36.776V37.458C12.8368 37.5387 12.8111 37.6047 12.7598 37.656C12.7085 37.7 12.6425 37.722 12.5618 37.722H9.1848V39.735H12.8918C12.9725 39.735 13.0385 39.7607 13.0898 39.812C13.1411 39.8633 13.1668 39.9293 13.1668 40.01V40.736C13.1668 40.8093 13.1411 40.8717 13.0898 40.923C13.0385 40.9743 12.9725 41 12.8918 41H7.9638ZM17.2156 41.11C16.5336 41.11 15.9616 41.011 15.4996 40.813C15.0449 40.6077 14.6966 40.3437 14.4546 40.021C14.2199 39.691 14.0952 39.3463 14.0806 38.987C14.0806 38.921 14.1026 38.866 14.1466 38.822C14.1906 38.778 14.2456 38.756 14.3116 38.756H15.2906C15.3859 38.756 15.4556 38.778 15.4996 38.822C15.5509 38.8587 15.5949 38.9063 15.6316 38.965C15.6756 39.1043 15.7599 39.2437 15.8846 39.383C16.0092 39.515 16.1779 39.625 16.3906 39.713C16.6106 39.801 16.8856 39.845 17.2156 39.845C17.7436 39.845 18.1359 39.757 18.3926 39.581C18.6566 39.405 18.7886 39.1667 18.7886 38.866C18.7886 38.6533 18.7189 38.4847 18.5796 38.36C18.4402 38.228 18.2239 38.1107 17.9306 38.008C17.6446 37.898 17.2632 37.7843 16.7866 37.667C16.2366 37.535 15.7746 37.3773 15.4006 37.194C15.0339 37.0033 14.7552 36.765 14.5646 36.479C14.3812 36.193 14.2896 35.83 14.2896 35.39C14.2896 34.9647 14.4032 34.587 14.6306 34.257C14.8652 33.927 15.1952 33.6667 15.6206 33.476C16.0532 33.2853 16.5666 33.19 17.1606 33.19C17.6372 33.19 18.0589 33.256 18.4256 33.388C18.7922 33.5127 19.0966 33.6813 19.3386 33.894C19.5806 34.0993 19.7639 34.323 19.8886 34.565C20.0206 34.7997 20.0902 35.0307 20.0976 35.258C20.0976 35.3167 20.0756 35.3717 20.0316 35.423C19.9949 35.467 19.9399 35.489 19.8666 35.489H18.8436C18.7849 35.489 18.7262 35.4743 18.6676 35.445C18.6089 35.4157 18.5612 35.3607 18.5246 35.28C18.4806 35.0527 18.3376 34.8583 18.0956 34.697C17.8536 34.5357 17.5419 34.455 17.1606 34.455C16.7646 34.455 16.4456 34.5283 16.2036 34.675C15.9616 34.8217 15.8406 35.049 15.8406 35.357C15.8406 35.5623 15.8992 35.7347 16.0166 35.874C16.1412 36.006 16.3356 36.1233 16.5996 36.226C16.8709 36.3287 17.2266 36.4387 17.6666 36.556C18.2899 36.6953 18.7996 36.8567 19.1956 37.04C19.5916 37.2233 19.8812 37.458 20.0646 37.744C20.2479 38.0227 20.3396 38.3783 20.3396 38.811C20.3396 39.295 20.2076 39.7093 19.9436 40.054C19.6869 40.3913 19.3239 40.6517 18.8546 40.835C18.3852 41.0183 17.8389 41.11 17.2156 41.11ZM23.4723 41C23.3989 41 23.3366 40.9743 23.2853 40.923C23.2339 40.8717 23.2083 40.8093 23.2083 40.736V34.653H21.1733C21.0999 34.653 21.0376 34.6273 20.9863 34.576C20.9349 34.5247 20.9093 34.4623 20.9093 34.389V33.575C20.9093 33.4943 20.9349 33.4283 20.9863 33.377C21.0376 33.3257 21.0999 33.3 21.1733 33.3H26.7833C26.8639 33.3 26.9299 33.3257 26.9813 33.377C27.0326 33.4283 27.0583 33.4943 27.0583 33.575V34.389C27.0583 34.4623 27.0326 34.5247 26.9813 34.576C26.9299 34.6273 26.8639 34.653 26.7833 34.653H24.7593V40.736C24.7593 40.8093 24.7336 40.8717 24.6823 40.923C24.6309 40.9743 24.5649 41 24.4843 41H23.4723ZM27.5966 38.327C27.516 38.327 27.45 38.3013 27.3986 38.25C27.3546 38.1987 27.3326 38.1363 27.3326 38.063V37.337C27.3326 37.2637 27.3546 37.2013 27.3986 37.15C27.45 37.0987 27.516 37.073 27.5966 37.073H30.9736C31.047 37.073 31.1093 37.0987 31.1606 37.15C31.212 37.2013 31.2376 37.2637 31.2376 37.337V38.063C31.2376 38.1363 31.212 38.1987 31.1606 38.25C31.1093 38.3013 31.047 38.327 30.9736 38.327H27.5966ZM32.9931 41C32.9198 41 32.8574 40.9743 32.8061 40.923C32.7548 40.8717 32.7291 40.8093 32.7291 40.736V33.564C32.7291 33.4907 32.7548 33.4283 32.8061 33.377C32.8574 33.3257 32.9198 33.3 32.9931 33.3H34.0271C34.1078 33.3 34.1701 33.3257 34.2141 33.377C34.2654 33.4283 34.2911 33.4907 34.2911 33.564V40.736C34.2911 40.8093 34.2654 40.8717 34.2141 40.923C34.1701 40.9743 34.1078 41 34.0271 41H32.9931ZM37.9742 41C37.9009 41 37.8385 40.9743 37.7872 40.923C37.7359 40.8717 37.7102 40.8093 37.7102 40.736V34.653H35.6752C35.6019 34.653 35.5395 34.6273 35.4882 34.576C35.4369 34.5247 35.4112 34.4623 35.4112 34.389V33.575C35.4112 33.4943 35.4369 33.4283 35.4882 33.377C35.5395 33.3257 35.6019 33.3 35.6752 33.3H41.2852C41.3659 33.3 41.4319 33.3257 41.4832 33.377C41.5345 33.4283 41.5602 33.4943 41.5602 33.575V34.389C41.5602 34.4623 41.5345 34.5247 41.4832 34.576C41.4319 34.6273 41.3659 34.653 41.2852 34.653H39.2612V40.736C39.2612 40.8093 39.2355 40.8717 39.1842 40.923C39.1329 40.9743 39.0669 41 38.9862 41H37.9742Z" fill="#AB570A"/>
<path d="M27.425 12.425L27.375 12.48L18.6925 23.5425L13.46 18.3075C13.1046 17.9763 12.6344 17.796 12.1487 17.8045C11.6629 17.8131 11.1995 18.0099 10.8559 18.3534C10.5124 18.6969 10.3156 19.1604 10.3071 19.6462C10.2985 20.1319 10.4788 20.602 10.81 20.9575L17.425 27.575C17.6032 27.7528 17.8154 27.893 18.049 27.9871C18.2825 28.0812 18.5326 28.1273 18.7844 28.1226C19.0361 28.1179 19.2843 28.0626 19.5142 27.9599C19.7441 27.8573 19.951 27.7093 20.1225 27.525L30.1025 15.05C30.4423 14.6933 30.6281 14.2172 30.6197 13.7246C30.6113 13.2321 30.4094 12.7626 30.0576 12.4177C29.7058 12.0728 29.2325 11.8802 28.7398 11.8816C28.2472 11.883 27.7749 12.0781 27.425 12.425Z" fill="#AB570A"/>
<path fill-rule="evenodd" clip-rule="evenodd" d="M7.26225 32C4.20796 28.7581 2.5 24.4671 2.5 20C2.5 15.3587 4.34374 10.9075 7.62563 7.62563C10.9075 4.34374 15.3587 2.5 20 2.5C24.6413 2.5 29.0925 4.34374 32.3744 7.62563C35.6563 10.9075 37.5 15.3587 37.5 20C37.5 24.4671 35.792 28.7581 32.7377 32H36.0001C38.5813 28.5584 40 24.3523 40 20C40 14.6957 37.8929 9.60859 34.1421 5.85786C30.3914 2.10714 25.3043 0 20 0C14.6957 0 9.60859 2.10714 5.85786 5.85786C2.10714 9.60859 0 14.6957 0 20C0 24.3523 1.41866 28.5584 3.9999 32H7.26225Z" fill="#AB570A"/>
</svg>
