<svg width="92" height="126" viewBox="0 0 92 126" fill="none" xmlns="http://www.w3.org/2000/svg">
<path d="M6.72213 108C6.56213 108 6.42613 107.944 6.31413 107.832C6.20213 107.72 6.14613 107.584 6.14613 107.424V94.152H1.70613C1.54613 94.152 1.41013 94.096 1.29813 93.984C1.18613 93.872 1.13013 93.736 1.13013 93.576V91.8C1.13013 91.624 1.18613 91.48 1.29813 91.368C1.41013 91.256 1.54613 91.2 1.70613 91.2H13.9461C14.1221 91.2 14.2661 91.256 14.3781 91.368C14.4901 91.48 14.5461 91.624 14.5461 91.8V93.576C14.5461 93.736 14.4901 93.872 14.3781 93.984C14.2661 94.096 14.1221 94.152 13.9461 94.152H9.53013V107.424C9.53013 107.584 9.47413 107.72 9.36213 107.832C9.25013 107.944 9.10613 108 8.93013 108H6.72213ZM17.5574 108C17.3974 108 17.2614 107.944 17.1494 107.832C17.0374 107.72 16.9814 107.584 16.9814 107.424V91.8C16.9814 91.624 17.0374 91.48 17.1494 91.368C17.2614 91.256 17.3974 91.2 17.5574 91.2H28.1174C28.2934 91.2 28.4374 91.256 28.5494 91.368C28.6614 91.48 28.7174 91.624 28.7174 91.8V93.384C28.7174 93.544 28.6614 93.68 28.5494 93.792C28.4374 93.904 28.2934 93.96 28.1174 93.96H20.2214V98.208H27.5894C27.7654 98.208 27.9094 98.264 28.0214 98.376C28.1334 98.472 28.1894 98.608 28.1894 98.784V100.272C28.1894 100.448 28.1334 100.592 28.0214 100.704C27.9094 100.8 27.7654 100.848 27.5894 100.848H20.2214V105.24H28.3094C28.4854 105.24 28.6294 105.296 28.7414 105.408C28.8534 105.52 28.9094 105.664 28.9094 105.84V107.424C28.9094 107.584 28.8534 107.72 28.7414 107.832C28.6294 107.944 28.4854 108 28.3094 108H17.5574ZM37.7431 108.24C36.2551 108.24 35.0071 108.024 33.9991 107.592C33.0071 107.144 32.2471 106.568 31.7191 105.864C31.2071 105.144 30.9351 104.392 30.9031 103.608C30.9031 103.464 30.9511 103.344 31.0471 103.248C31.1431 103.152 31.2631 103.104 31.4071 103.104H33.5431C33.7511 103.104 33.9031 103.152 33.9991 103.248C34.1111 103.328 34.2071 103.432 34.2871 103.56C34.3831 103.864 34.5671 104.168 34.8391 104.472C35.1111 104.76 35.4791 105 35.9431 105.192C36.4231 105.384 37.0231 105.48 37.7431 105.48C38.8951 105.48 39.7511 105.288 40.3111 104.904C40.8871 104.52 41.1751 104 41.1751 103.344C41.1751 102.88 41.0231 102.512 40.7191 102.24C40.4151 101.952 39.9431 101.696 39.3031 101.472C38.6791 101.232 37.8471 100.984 36.8071 100.728C35.6071 100.44 34.5991 100.096 33.7831 99.696C32.9831 99.28 32.3751 98.76 31.9591 98.136C31.5591 97.512 31.3591 96.72 31.3591 95.76C31.3591 94.832 31.6071 94.008 32.1031 93.288C32.6151 92.568 33.3351 92 34.2631 91.584C35.2071 91.168 36.3271 90.96 37.6231 90.96C38.6631 90.96 39.5831 91.104 40.3831 91.392C41.1831 91.664 41.8471 92.032 42.3751 92.496C42.9031 92.944 43.3031 93.432 43.5751 93.96C43.8631 94.472 44.0151 94.976 44.0311 95.472C44.0311 95.6 43.9831 95.72 43.8871 95.832C43.8071 95.928 43.6871 95.976 43.5271 95.976H41.2951C41.1671 95.976 41.0391 95.944 40.9111 95.88C40.7831 95.816 40.6791 95.696 40.5991 95.52C40.5031 95.024 40.1911 94.6 39.6631 94.248C39.1351 93.896 38.4551 93.72 37.6231 93.72C36.7591 93.72 36.0631 93.88 35.5351 94.2C35.0071 94.52 34.7431 95.016 34.7431 95.688C34.7431 96.136 34.8711 96.512 35.1271 96.816C35.3991 97.104 35.8231 97.36 36.3991 97.584C36.9911 97.808 37.7671 98.048 38.7271 98.304C40.0871 98.608 41.1991 98.96 42.0631 99.36C42.9271 99.76 43.5591 100.272 43.9591 100.896C44.3591 101.504 44.5591 102.28 44.5591 103.224C44.5591 104.28 44.2711 105.184 43.6951 105.936C43.1351 106.672 42.3431 107.24 41.3191 107.64C40.2951 108.04 39.1031 108.24 37.7431 108.24ZM51.394 108C51.234 108 51.098 107.944 50.986 107.832C50.874 107.72 50.818 107.584 50.818 107.424V94.152H46.378C46.218 94.152 46.082 94.096 45.97 93.984C45.858 93.872 45.802 93.736 45.802 93.576V91.8C45.802 91.624 45.858 91.48 45.97 91.368C46.082 91.256 46.218 91.2 46.378 91.2H58.618C58.794 91.2 58.938 91.256 59.05 91.368C59.162 91.48 59.218 91.624 59.218 91.8V93.576C59.218 93.736 59.162 93.872 59.05 93.984C58.938 94.096 58.794 94.152 58.618 94.152H54.202V107.424C54.202 107.584 54.146 107.72 54.034 107.832C53.922 107.944 53.778 108 53.602 108H51.394ZM60.3927 102.168C60.2167 102.168 60.0727 102.112 59.9607 102C59.8647 101.888 59.8167 101.752 59.8167 101.592V100.008C59.8167 99.848 59.8647 99.712 59.9607 99.6C60.0727 99.488 60.2167 99.432 60.3927 99.432H67.7607C67.9207 99.432 68.0567 99.488 68.1687 99.6C68.2807 99.712 68.3367 99.848 68.3367 100.008V101.592C68.3367 101.752 68.2807 101.888 68.1687 102C68.0567 102.112 67.9207 102.168 67.7607 102.168H60.3927ZM72.1668 108C72.0068 108 71.8708 107.944 71.7588 107.832C71.6468 107.72 71.5908 107.584 71.5908 107.424V91.776C71.5908 91.616 71.6468 91.48 71.7588 91.368C71.8708 91.256 72.0068 91.2 72.1668 91.2H74.4228C74.5988 91.2 74.7348 91.256 74.8308 91.368C74.9428 91.48 74.9988 91.616 74.9988 91.776V107.424C74.9988 107.584 74.9428 107.72 74.8308 107.832C74.7348 107.944 74.5988 108 74.4228 108H72.1668ZM83.0346 108C82.8746 108 82.7386 107.944 82.6266 107.832C82.5146 107.72 82.4586 107.584 82.4586 107.424V94.152H78.0186C77.8586 94.152 77.7226 94.096 77.6106 93.984C77.4986 93.872 77.4426 93.736 77.4426 93.576V91.8C77.4426 91.624 77.4986 91.48 77.6106 91.368C77.7226 91.256 77.8586 91.2 78.0186 91.2H90.2586C90.4346 91.2 90.5786 91.256 90.6906 91.368C90.8026 91.48 90.8586 91.624 90.8586 91.8V93.576C90.8586 93.736 90.8026 93.872 90.6906 93.984C90.5786 94.096 90.4346 94.152 90.2586 94.152H85.8426V107.424C85.8426 107.584 85.7866 107.72 85.6746 107.832C85.5626 107.944 85.4186 108 85.2426 108H83.0346Z" fill="#AB570A"/>
<g clip-path="url(#clip0_84_283)">
<path fill-rule="evenodd" clip-rule="evenodd" d="M19.0245 88C12.9159 81.5163 9.5 72.9342 9.5 64C9.5 54.7174 13.1875 45.815 19.7513 39.2513C26.315 32.6875 35.2174 29 44.5 29C53.7826 29 62.685 32.6875 69.2487 39.2513C75.8125 45.815 79.5 54.7174 79.5 64C79.5 72.9342 76.0841 81.5163 69.9755 88H76.5002C81.6627 81.1168 84.5 72.7047 84.5 64C84.5 53.3913 80.2857 43.2172 72.7843 35.7157C65.2828 28.2143 55.1087 24 44.5 24C33.8913 24 23.7172 28.2143 16.2157 35.7157C8.71427 43.2172 4.5 53.3913 4.5 64C4.5 72.7047 7.33732 81.1168 12.4998 88H19.0245Z" fill="#AB570A"/>
<path d="M59.3502 48.8499L59.2502 48.9599L41.8852 71.0849L31.4202 60.6149C30.7094 59.9525 29.7691 59.5919 28.7976 59.6091C27.8261 59.6262 26.8992 60.0198 26.2121 60.7068C25.5251 61.3939 25.1315 62.3208 25.1144 63.2923C25.0972 64.2638 25.4578 65.2041 26.1202 65.9149L39.3502 79.1499C39.7066 79.5057 40.131 79.786 40.5981 79.9742C41.0652 80.1624 41.5655 80.2546 42.069 80.2452C42.5725 80.2359 43.0689 80.1253 43.5287 79.9199C43.9885 79.7145 44.4022 79.4187 44.7452 79.0499L64.7052 54.0999C65.3849 53.3866 65.7565 52.4344 65.7397 51.4493C65.7229 50.4641 65.3191 49.5252 64.6155 48.8354C63.9119 48.1456 62.9652 47.7605 61.9799 47.7632C60.9946 47.7659 60.05 48.1563 59.3502 48.8499Z" fill="#AB570A"/>
</g>
<defs>
<clipPath id="clip0_84_283">
<rect width="80" height="80" fill="white" transform="translate(4.5 24)"/>
</clipPath>
</defs>
</svg>
